<svg width="315" height="97" viewBox="0 0 315 97" fill="none" xmlns="http://www.w3.org/2000/svg">
<path d="M226.254 49.2275L238.433 70.3225L232.837 70.375L229.585 64.7083L226.31 70.3458L223.529 70.3442L222.104 67.8833L226.769 59.8617L223.458 54.0983L226.254 49.2275Z" fill="#FF6087"/>
<path fill-rule="evenodd" clip-rule="evenodd" d="M230.65 40.5375L218.47 61.6325L215.625 56.8117L218.908 51.1617L212.389 51.145L211 48.7358L212.419 46.2725L221.698 46.3017L225.033 40.5517L230.65 40.5375ZM231.583 57.4008H255.942L253.19 62.2758L246.657 62.2575L249.902 67.9117L248.51 70.3283L245.667 70.3317L241.053 62.2817L234.406 62.2683L231.583 57.4008ZM245.762 48.1575L233.583 27.0617L239.18 27.0092L242.432 32.6758L245.707 27.0383L248.488 27.04L249.904 29.5008L245.239 37.5225L248.551 43.2858L245.762 48.1575Z" fill="#FFB8C9"/>
<path d="M226.254 49.2275L238.433 70.3225L232.837 70.375L229.585 64.7083L226.31 70.3458L223.529 70.3442L222.104 67.8833L226.769 59.8617L223.458 54.0983L226.254 49.2275Z" fill="#FF6087"/>
<path fill-rule="evenodd" clip-rule="evenodd" d="M240.4 39.9308L216.042 39.9292L218.794 35.0558L225.328 35.0742L222.083 29.42L223.475 27.0033L226.318 27L230.933 35.05L237.579 35.0633L240.4 39.9308ZM241.35 56.8425L253.53 35.7483L256.374 40.5692L253.091 46.2192L259.61 46.2358L261 48.6525L259.581 51.1158L250.302 51.0867L246.967 56.8367L241.35 56.8425Z" fill="#FF6087"/>
<path d="M26.7639 70.875C23.5556 70.875 20.5579 70.2917 17.7708 69.125C14.9838 67.9259 12.5208 66.2894 10.3819 64.2153C8.27546 62.1412 6.62269 59.7269 5.42361 56.9722C4.22454 54.2176 3.625 51.2685 3.625 48.125C3.625 44.9815 4.22454 42.0324 5.42361 39.2778C6.62269 36.5231 8.27546 34.1088 10.3819 32.0347C12.5208 29.9606 14.9838 28.3403 17.7708 27.1736C20.5579 25.9745 23.5556 25.375 26.7639 25.375C29.6481 25.375 32.3704 25.8449 34.9306 26.7847C37.4907 27.7245 39.7755 29.0532 41.7847 30.7708L39.3056 40.9792C38.1065 38.9699 36.4537 37.2847 34.3472 35.9236C32.2407 34.5301 29.8102 33.8333 27.0556 33.8333C24.4306 33.8333 22.0486 34.4815 19.9097 35.7778C17.8032 37.0417 16.1343 38.7593 14.9028 40.9306C13.6713 43.0694 13.0556 45.4676 13.0556 48.125C13.0556 50.75 13.6713 53.1481 14.9028 55.3194C16.1343 57.4907 17.8032 59.2245 19.9097 60.5208C22.0486 61.7847 24.4306 62.4167 27.0556 62.4167C29.7778 62.4167 32.1921 61.7361 34.2986 60.375C36.4375 58.9815 38.1065 57.2801 39.3056 55.2708L41.7847 65.4792C39.7431 67.1644 37.4421 68.4931 34.8819 69.4653C32.3542 70.4051 29.6481 70.875 26.7639 70.875ZM69.0783 70.875C65.87 70.875 62.8723 70.2917 60.0853 69.125C57.2982 67.9259 54.8353 66.2894 52.6964 64.2153C50.5899 62.1412 48.9371 59.7269 47.7381 56.9722C46.539 54.2176 45.9395 51.2685 45.9395 48.125C45.9395 44.9815 46.539 42.0324 47.7381 39.2778C48.9371 36.5231 50.5899 34.1088 52.6964 32.0347C54.8353 29.9606 57.2982 28.3403 60.0853 27.1736C62.8723 25.9745 65.87 25.375 69.0783 25.375C72.2867 25.375 75.2844 25.9745 78.0714 27.1736C80.8584 28.3403 83.3052 29.9606 85.4117 32.0347C87.5506 34.1088 89.2195 36.5231 90.4186 39.2778C91.6177 42.0324 92.2172 44.9815 92.2172 48.125C92.2172 51.2685 91.6177 54.2176 90.4186 56.9722C89.2195 59.7269 87.5506 62.1412 85.4117 64.2153C83.3052 66.2894 80.8584 67.9259 78.0714 69.125C75.2844 70.2917 72.2867 70.875 69.0783 70.875ZM69.0783 62.4167C71.7033 62.4167 74.0691 61.7847 76.1756 60.5208C78.282 59.2245 79.951 57.4907 81.1825 55.3194C82.4464 53.1481 83.0783 50.75 83.0783 48.125C83.0783 45.4676 82.4464 43.0694 81.1825 40.9306C79.951 38.7593 78.282 37.0417 76.1756 35.7778C74.0691 34.4815 71.7033 33.8333 69.0783 33.8333C66.4533 33.8333 64.0714 34.4815 61.9325 35.7778C59.826 37.0417 58.157 38.7593 56.9256 40.9306C55.6941 43.0694 55.0783 45.4676 55.0783 48.125C55.0783 50.75 55.6941 53.1481 56.9256 55.3194C58.157 57.4907 59.826 59.2245 61.9325 60.5208C64.0714 61.7847 66.4533 62.4167 69.0783 62.4167ZM133.941 71.4583L107.691 45.2569V70H99.5241V24.7917L125.774 50.9444V26.25H133.941V71.4583ZM140.649 34.125V26.25H171.08V34.125H160.385V70H151.344V34.125H140.649ZM177.941 70V26.25H191.309C194.485 26.25 197.191 26.8819 199.428 28.1458C201.696 29.4097 203.43 31.0949 204.629 33.2014C205.828 35.2755 206.428 37.5602 206.428 40.0556C206.428 42.3241 205.925 44.3819 204.921 46.2292C203.948 48.0764 202.555 49.5995 200.74 50.7986L212.309 70H202.733L193.011 53.375H186.4V70H177.941ZM186.4 46.0833H191.115C192.703 46.0833 193.999 45.7917 195.004 45.2083C196.009 44.5926 196.754 43.831 197.24 42.9236C197.726 41.9838 197.969 41.0278 197.969 40.0556C197.969 38.338 197.337 36.9282 196.073 35.8264C194.809 34.6921 193.157 34.125 191.115 34.125H186.4V46.0833ZM266.799 70V26.25H275.841V62.125H288.966V70H266.799ZM302.989 51.9167C301.498 51.9167 300.251 51.4144 299.246 50.4097C298.241 49.4051 297.739 48.1574 297.739 46.6667C297.739 45.1759 298.241 43.9282 299.246 42.9236C300.251 41.919 301.498 41.4167 302.989 41.4167C304.512 41.4167 305.76 41.919 306.732 42.9236C307.737 43.9282 308.239 45.1759 308.239 46.6667C308.239 48.1574 307.737 49.4051 306.732 50.4097C305.76 51.4144 304.512 51.9167 302.989 51.9167ZM294.288 75.8333C295.681 73.8241 296.832 71.5069 297.739 68.8819C298.646 66.2569 299.1 63.2269 299.1 59.7917H307.267C307.267 62.838 306.894 65.706 306.149 68.3958C305.436 71.0856 304.318 73.5648 302.794 75.8333H294.288Z" fill="#FF6087"/>
<path d="M138.333 90V77.5H145V79.5833H140.75V81.5833H144.583V83.6667H140.75V90H138.333ZM146.284 90V76.6667H148.701V90H146.284ZM154.303 90.2222C153.535 90.2222 152.836 90.0231 152.206 89.625C151.577 89.2269 151.072 88.6991 150.692 88.0417C150.322 87.375 150.137 86.6389 150.137 85.8333C150.137 85.0278 150.322 84.2917 150.692 83.625C151.072 82.9583 151.577 82.4306 152.206 82.0417C152.836 81.6435 153.535 81.4444 154.303 81.4444C154.84 81.4444 155.331 81.5417 155.776 81.7361C156.22 81.9213 156.6 82.1806 156.914 82.5139V81.6667H158.998V90H156.914V89.1528C156.6 89.4861 156.22 89.75 155.776 89.9444C155.331 90.1296 154.84 90.2222 154.303 90.2222ZM154.595 88.0972C155.002 88.0972 155.373 87.9954 155.706 87.7917C156.039 87.588 156.303 87.3148 156.498 86.9722C156.702 86.6296 156.803 86.25 156.803 85.8333C156.803 85.4167 156.702 85.037 156.498 84.6944C156.303 84.3519 156.039 84.0787 155.706 83.875C155.373 83.6713 155.002 83.5694 154.595 83.5694C154.188 83.5694 153.817 83.6713 153.484 83.875C153.151 84.0787 152.882 84.3519 152.678 84.6944C152.484 85.037 152.387 85.4167 152.387 85.8333C152.387 86.25 152.484 86.6296 152.678 86.9722C152.882 87.3148 153.151 87.588 153.484 87.7917C153.817 87.9954 154.188 88.0972 154.595 88.0972ZM166.368 90L163.049 85.4167L165.785 81.6667H168.382L165.688 85.2083L169.216 90H166.368ZM160.827 90V76.6667H163.243V90H160.827ZM173.896 90.2778C172.961 90.2778 172.137 90.0833 171.424 89.6944C170.711 89.3056 170.156 88.7731 169.757 88.0972C169.359 87.412 169.16 86.6296 169.16 85.75C169.16 84.9074 169.355 84.162 169.743 83.5139C170.132 82.8565 170.656 82.338 171.313 81.9583C171.98 81.5787 172.716 81.3889 173.521 81.3889C174.345 81.3889 175.081 81.5787 175.73 81.9583C176.378 82.3287 176.887 82.838 177.257 83.4861C177.637 84.1343 177.827 84.8704 177.827 85.6944V86.5417H172.743C172.512 86.5417 172.29 86.5278 172.077 86.5C171.864 86.4722 171.651 86.4398 171.438 86.4028C171.549 86.9583 171.822 87.412 172.257 87.7639C172.702 88.1065 173.267 88.2778 173.952 88.2778C174.48 88.2778 174.952 88.1713 175.368 87.9583C175.794 87.7454 176.142 87.4815 176.41 87.1667L176.938 89.3333C176.521 89.6481 176.049 89.8843 175.521 90.0417C175.003 90.1991 174.461 90.2778 173.896 90.2778ZM171.382 84.9444C171.845 84.8426 172.299 84.7917 172.743 84.7917H174.216C174.475 84.7917 174.72 84.8009 174.952 84.8194C175.183 84.838 175.401 84.8704 175.605 84.9167C175.466 84.4167 175.211 84.0231 174.841 83.7361C174.48 83.4491 174.031 83.3056 173.493 83.3056C172.984 83.3056 172.54 83.4537 172.16 83.75C171.79 84.037 171.531 84.4352 171.382 84.9444Z" fill="#FFB8C9"/>
<rect y="83" width="131" height="3" fill="#FF6087"/>
<rect x="184" y="83" width="131" height="3" fill="#FF6087"/>
</svg>
